<svg width="100" height="100" viewBox="0 0 100 100" fill="none" xmlns="http://www.w3.org/2000/svg">
<path d="M72.2809 0.0503671C67.2821 0.574361 62.6977 2.67922 58.5545 6.35606C57.1135 7.63496 55.213 9.89968 54.1232 11.6404C53.5738 12.5108 31.4712 49.812 30.5164 51.4728C26.3193 58.7732 24.7431 66.2424 26.2202 71.8553C26.8237 74.1556 28.2197 76.3226 29.904 77.5748C33.2095 80.0349 37.4246 80.1593 42.0181 77.9478C44.2608 76.8643 46.3684 75.3545 48.539 73.2763C50.7817 71.127 52.7092 68.7557 54.4294 66.0381C55.6994 64.022 66.3364 45.9842 66.4985 45.5668C66.7237 44.9895 66.7958 43.8261 66.6516 43.2044C66.2103 41.3304 64.517 40.016 62.5536 40.016C60.9413 40.016 59.6714 40.7798 58.7617 42.2896C58.5636 42.6271 56.0507 46.8546 53.1865 51.6949C50.3224 56.5263 47.7644 60.8426 47.4852 61.2866C44.9363 65.3986 41.838 68.5781 38.7216 70.2922C37.884 70.754 36.7762 71.1093 36.0286 71.1626C35.3891 71.207 35.3351 71.1981 35.0649 70.9761C34.6956 70.6741 34.4524 70.1323 34.2633 69.2265C34.0381 68.1429 34.1282 65.7716 34.4434 64.2618C35.0288 61.4554 36.1097 58.64 37.6318 55.9579C38.8117 53.8796 60.8783 16.6672 61.4097 15.859C64.0757 11.7914 68.3449 8.95827 72.6682 8.38987C73.8751 8.23 75.7755 8.33658 76.8743 8.61189C78.0002 8.90498 79.3872 9.56219 80.3239 10.2638C84.8543 13.6298 85.9442 20.8414 82.8728 27.0938C82.3234 28.2217 49.1965 84.2002 48.4489 85.266C44.2698 91.2431 35.8845 93.4456 29.1384 90.3283C28.1116 89.8576 22.2302 86.5538 21.0323 85.7722C19.1769 84.5644 17.0783 82.2108 16.0426 80.1682C13.8989 75.9496 13.8809 70.9761 15.9885 66.8285C16.2947 66.2424 23.311 54.377 41.2795 24.0742C44.3509 18.8964 47.0079 14.3581 47.188 13.9939C47.4672 13.4167 47.5122 13.2302 47.5393 12.5108C47.5843 11.5605 47.4852 11.0898 47.0709 10.3082C46.3774 8.99379 44.9093 8.13231 43.3691 8.13231C42.2072 8.14119 41.2976 8.52308 40.4419 9.37568C39.9285 9.88191 39.5142 10.5391 36.9203 14.9265C35.299 17.6619 28.4359 29.2519 21.6628 40.6821C14.8897 52.1123 9.14337 61.8195 8.89118 62.2636C7.54016 64.6171 6.56743 67.5568 6.16212 70.4787C5.94596 71.9885 5.94596 74.8305 6.16212 76.3403C6.6665 79.9994 7.94546 83.3654 9.94497 86.3229C10.9447 87.7883 11.6292 88.6142 12.9172 89.8843C14.8987 91.8381 15.8534 92.4953 20.2577 94.991C25.8419 98.1527 26.7336 98.5612 29.5797 99.2984C31.9035 99.9023 32.8042 100 35.6683 100C38.4424 100 39.2981 99.9112 41.5227 99.3783C44.7291 98.5968 48.3138 96.8472 50.8538 94.8133C52.5831 93.419 54.4024 91.4562 55.6364 89.6178C56.1768 88.8185 89.2226 33.0975 90.0062 31.6676C91.3212 29.2608 92.357 26.1435 92.8343 23.1416C93.0325 21.8538 93.0595 18.026 92.8794 16.7915C92.2939 12.9548 91.006 9.79311 88.9164 7.06656C88.2679 6.22284 86.7908 4.71302 85.9712 4.04693C83.4943 2.04865 80.4861 0.725344 77.1896 0.183588C76.1808 0.0148439 73.3167 -0.0562079 72.2809 0.0503671Z" fill="#A48FFF"/>
</svg>
