<svg width="2000" height="616" viewBox="0 0 2000 616" fill="none" xmlns="http://www.w3.org/2000/svg">
<path d="M683.752 85.814C724.373 85.814 756.299 95.2392 779.532 114.088C802.765 132.938 818.327 159.604 826.218 194.088L765.286 202.856C759.587 184.445 750.236 169.759 737.231 158.8C724.373 147.695 707.861 142.071 687.697 141.924C667.679 141.632 651.02 145.942 637.724 154.855C624.427 163.768 614.418 176.408 607.696 192.773C601.121 209.138 597.834 228.28 597.834 250.198C597.834 272.116 601.121 291.112 607.696 307.185C614.418 323.258 624.427 335.751 637.724 344.665C651.02 353.578 667.679 358.18 687.697 358.472C701.286 358.764 713.56 356.426 724.519 351.458C735.624 346.49 744.975 338.673 752.573 328.006C760.171 317.34 765.578 303.678 768.793 287.02H718.82V240.993H832.354C832.647 242.892 832.867 246.253 833.013 251.075C833.159 255.897 833.231 258.673 833.231 259.404C833.231 289.65 827.094 316.463 814.82 339.842C802.546 363.221 785.231 381.559 762.875 394.856C740.519 408.007 714.145 414.582 683.752 414.583C663.88 414.583 644.957 411.076 626.984 404.062C609.012 396.902 593.084 386.381 579.203 372.5C565.468 358.618 554.582 341.449 546.546 320.993C538.656 300.536 534.71 276.937 534.71 250.198C534.71 215.275 541.358 185.613 554.655 161.211C568.098 136.664 586.071 117.961 608.573 105.102C631.222 92.2436 656.282 85.814 683.752 85.814ZM126.247 92.3892C148.749 92.3892 166.941 96.9197 180.822 105.979C194.703 114.892 204.859 126.143 211.288 139.732C217.717 153.321 220.932 167.057 220.932 180.938C220.932 198.618 216.913 213.303 208.877 224.993C204.101 232.068 198.225 237.722 191.254 241.96C203.628 246.936 213.374 254.576 220.493 264.883C230.429 279.057 235.397 294.911 235.397 312.445C235.397 331.294 231.891 347.879 224.877 362.199C218.009 376.518 207.489 387.769 193.315 395.952C179.142 403.988 161.315 408.006 139.836 408.006H0V92.3892H126.247ZM530.289 408.006H468.919L448.624 342.253H329.78L309.795 408.006H248.425L344.864 92.3892H433.851L530.289 408.006ZM60.4932 351.897H133.699C141.736 351.897 148.896 350.217 155.179 346.856C161.462 343.349 166.356 338.527 169.863 332.39C173.516 326.107 175.343 318.728 175.343 310.253C175.343 302.801 173.809 296.153 170.74 290.308C167.672 284.463 162.996 279.86 156.713 276.5C150.576 272.993 142.905 271.24 133.699 271.24H60.4932V351.897ZM346.701 286.582H431.439L388.743 148.254L346.701 286.582ZM60.4932 215.568H125.37C132.092 215.568 138.082 214.399 143.343 212.061C148.603 209.723 152.767 206.144 155.836 201.322C158.904 196.354 160.438 189.997 160.438 182.252C160.438 172.609 157.443 164.5 151.452 157.924C145.461 151.349 136.767 148.061 125.37 148.061H60.4932V215.568Z" fill="#0f0f1a"/>
<path d="M1806.09 26.9424C1806.75 26.9424 1807.31 27.0527 1807.75 27.2744H1809.08C1810.41 28.1614 1811.41 29.3815 1812.07 30.9336C1812.96 32.4855 1813.74 33.9266 1814.4 35.2568C1815.29 36.5873 1816.4 37.6961 1817.73 38.583C1819.06 39.47 1820.94 39.6925 1823.38 39.249C1824.49 45.4575 1827.6 48.6728 1832.7 48.8945C1833.81 51.9987 1835.14 55.1028 1836.69 58.207C1838.46 61.3113 1840.79 63.7505 1843.67 65.5244C1843.45 66.4114 1843.34 67.6314 1843.34 69.1836C1843.34 72.2879 1844.01 75.2815 1845.34 78.1641C1846.89 81.0466 1848.77 83.7074 1850.99 86.1465V86.8125C1850.99 89.2512 1850.1 90.9138 1848.33 91.8008C1850.33 94.0182 1851.77 96.6798 1852.65 99.7842C1853.54 102.888 1854.32 106.104 1854.98 109.43C1855.65 112.534 1856.42 115.528 1857.31 118.41C1858.42 121.293 1860.19 123.51 1862.63 125.062V126.061C1862.63 127.169 1862.19 127.834 1861.3 128.056C1860.64 128.277 1860.3 128.943 1860.3 130.052C1864.29 137.369 1867.07 145.352 1868.62 154C1870.17 162.648 1872.17 170.963 1874.61 178.945C1875.49 179.832 1876.49 180.387 1877.6 180.608C1878.93 180.83 1879.93 181.385 1880.59 182.271C1879.26 183.158 1878.6 184.711 1878.6 186.928C1878.6 189.145 1878.04 190.808 1876.93 191.917C1878.71 193.469 1879.48 195.798 1879.26 198.902C1879.26 201.785 1880.15 203.891 1881.92 205.222V206.552C1881.92 207.439 1881.7 208.216 1881.26 208.881C1880.81 209.324 1880.59 209.989 1880.59 210.876V212.206C1882.37 219.967 1883.7 227.728 1884.58 235.489L1887.91 258.772C1889.02 266.533 1890.24 274.294 1891.57 282.055C1892.9 289.594 1894.78 297.022 1897.22 304.34C1897.44 304.562 1897.56 304.894 1897.56 305.338C1897.56 306.447 1897.11 307.111 1896.23 307.333C1895.34 307.333 1894.9 307.888 1894.9 308.996C1894.9 310.105 1895.23 311.436 1895.89 312.988C1896.78 314.318 1897.67 315.427 1898.55 316.313C1898.33 317.2 1898.22 318.532 1898.22 320.306C1898.22 323.632 1898.78 326.847 1899.88 329.951C1901.21 333.055 1902.55 336.159 1903.88 339.264C1905.43 342.146 1906.76 345.251 1907.87 348.577C1908.98 351.903 1909.42 355.451 1909.2 359.221C1910.53 361.216 1912.19 362.88 1914.19 364.21C1916.4 365.54 1918.62 366.76 1920.84 367.869C1923.06 368.978 1925.05 370.308 1926.83 371.86C1928.82 373.413 1930.15 375.519 1930.82 378.18C1929.04 379.732 1927.82 381.617 1927.16 383.834C1926.49 386.273 1925.27 388.379 1923.5 390.153C1925.05 393.923 1926.83 397.36 1928.82 400.465C1931.04 403.791 1933.26 407.006 1935.47 410.11L1942.46 419.424C1944.9 422.528 1947 425.854 1948.78 429.401C1951.22 429.401 1952.99 430.067 1954.1 431.397C1955.21 432.728 1956.98 433.282 1959.42 433.061C1960.31 434.834 1960.64 436.83 1960.42 439.048C1964.85 437.496 1969.29 436.72 1973.72 436.72C1976.16 436.72 1978.38 436.83 1980.38 437.052C1982.59 437.273 1984.81 437.385 1987.03 437.385C1989.69 437.385 1992.02 437.052 1994.01 436.387C1994.9 437.717 1995.56 439.159 1996.01 440.711C1996.45 442.485 1996.78 444.258 1997.01 446.032L1998 451.354C1998.45 453.128 1999.11 454.68 2000 456.011C1999.33 459.78 1997.78 462.441 1995.34 463.993C1993.13 465.767 1991.02 468.206 1989.02 471.311H1987.69C1985.48 471.311 1983.26 471.532 1981.04 471.976C1979.05 472.419 1976.94 472.973 1974.72 473.639C1973.61 473.195 1972.28 472.863 1970.73 472.642C1969.18 472.42 1968.18 471.644 1967.74 470.313C1965.96 471.2 1963.52 471.644 1960.42 471.644C1955.32 471.644 1950.44 470.202 1945.78 467.319C1941.35 464.437 1936.69 462.219 1931.82 460.667C1930.48 458.006 1928.82 455.567 1926.83 453.35C1925.05 451.354 1923.17 449.359 1921.17 447.363C1919.4 445.368 1917.62 443.26 1915.85 441.043C1914.08 438.826 1912.63 436.165 1911.52 433.061C1911.08 431.73 1910.53 430.954 1909.86 430.732C1909.2 430.511 1908.2 430.511 1906.87 430.732C1907.09 428.293 1906.76 426.187 1905.87 424.413C1905.21 422.639 1903.54 421.53 1900.88 421.087C1900.88 418.204 1900.44 415.765 1899.55 413.77C1898.66 411.774 1897.56 409.999 1896.23 408.447C1895.12 407.117 1893.79 405.675 1892.23 404.123C1890.9 402.571 1889.79 400.686 1888.91 398.469C1886.91 398.025 1884.92 397.692 1882.92 397.471H1876.93C1866.29 397.471 1855.98 399.467 1846 403.458C1844.89 403.901 1843.67 404.456 1842.34 405.121C1841.23 405.786 1840.12 406.341 1839.02 406.784H1837.69C1837.46 407.006 1837.13 407.117 1836.69 407.117C1835.14 407.117 1833.69 406.784 1832.36 406.119C1831.03 405.676 1829.59 405.454 1828.04 405.454C1827.37 405.454 1826.6 405.564 1825.71 405.786C1825.05 406.23 1824.38 406.562 1823.72 406.784C1820.39 407.893 1817.29 408.559 1814.4 408.78C1805.31 410.554 1795.67 411.885 1785.47 412.771C1775.49 413.658 1766.28 415.986 1757.86 419.756C1756.09 420.643 1754.98 421.973 1754.53 423.747C1754.09 425.743 1753.98 427.628 1754.2 429.401C1751.76 431.175 1749.88 433.504 1748.55 436.387C1747.44 439.269 1746.33 442.263 1745.22 445.367C1744.33 448.693 1743.33 451.908 1742.23 455.013C1741.12 458.117 1739.57 460.778 1737.57 462.995C1738.24 464.326 1738.57 465.767 1738.57 467.319C1738.57 470.645 1737.46 473.972 1735.24 477.298C1733.02 480.624 1731.36 483.839 1730.25 486.943C1729.14 490.048 1728.26 493.041 1727.59 495.924C1726.93 499.028 1725.93 501.8 1724.6 504.239C1723.27 506.678 1721.49 508.674 1719.28 510.227C1716.84 511.779 1713.51 512.555 1709.3 512.555C1705.31 512.555 1701.87 511.779 1698.99 510.227C1696.1 508.674 1693.78 506.678 1692 504.239C1690.23 501.8 1688.79 498.918 1687.68 495.592C1686.57 492.266 1685.68 488.939 1685.02 485.613C1687.46 480.735 1689.78 476.521 1692 472.974C1694.22 469.426 1695.88 464.88 1696.99 459.337C1700.98 456.454 1703.98 452.906 1705.97 448.693C1707.75 444.702 1708.74 440.267 1708.97 435.389C1711.4 433.837 1713.18 431.73 1714.29 429.069C1715.17 426.63 1715.73 423.969 1715.95 421.087C1710.63 420.643 1705.08 420.199 1699.32 419.756C1693.33 419.312 1687.79 418.204 1682.69 416.43C1682.69 416.062 1682.77 415.695 1682.92 415.328C1680.96 415.789 1679 416.157 1677.02 416.43C1675.69 417.76 1674.03 418.759 1672.03 419.424C1670.26 420.311 1668.26 420.975 1666.04 421.419C1663.83 421.862 1661.61 422.307 1659.39 422.75C1657.4 423.415 1655.62 424.413 1654.07 425.743C1648.53 426.187 1642.98 427.184 1637.44 428.736C1635.65 429.237 1633.86 429.725 1632.07 430.203C1635.72 423.376 1638.59 415.072 1640.23 406.861L1640.86 403.321L1640.87 403.271C1641.27 400.659 1641.41 396.418 1641.44 392.886C1641.68 392.748 1641.9 392.614 1642.1 392.481C1642.76 392.703 1643.43 392.814 1644.09 392.814H1646.42C1649.52 392.814 1652.41 392.26 1655.07 391.151C1657.73 390.043 1660.61 389.71 1663.72 390.153C1673.92 385.053 1684.23 380.619 1694.65 376.85C1705.29 373.302 1716.05 370.086 1726.91 367.203C1728.24 365.208 1729.8 363.767 1731.57 362.88C1733.56 361.993 1735.67 361.327 1737.89 360.884C1740.01 360.247 1742.14 359.815 1744.26 359.585C1745.52 356.48 1746.73 353.366 1747.88 350.24C1751.65 339.819 1754.53 329.286 1756.53 318.643C1758.08 316.425 1759.52 313.875 1760.85 310.992C1762.18 307.888 1763.18 304.673 1763.85 301.347C1764.73 298.021 1765.29 294.805 1765.51 291.7C1765.95 288.374 1766.17 285.38 1766.17 282.72C1768.61 279.837 1770.28 276.289 1771.16 272.076C1772.27 267.863 1773.16 263.539 1773.82 259.104C1774.49 254.448 1775.15 249.902 1775.82 245.468C1776.71 241.033 1778.26 237.152 1780.48 233.826V230.833C1780.7 227.507 1780.37 224.513 1779.48 221.853C1780.59 221.409 1781.25 220.41 1781.47 218.858C1781.7 217.306 1782.14 215.976 1782.81 214.867C1783.03 204.667 1784.13 194.689 1786.13 184.933C1788.13 174.954 1789.79 164.975 1791.12 154.997V154C1791.12 152.891 1790.68 152.337 1789.79 152.337C1789.12 152.115 1788.79 151.45 1788.79 150.341C1788.79 148.345 1789.01 145.684 1789.46 142.358C1790.12 139.032 1790.57 136.26 1790.79 134.043C1792.12 122.069 1792.78 110.205 1792.78 98.4531C1792.78 88.4749 1792.45 78.6071 1791.79 68.8506C1791.12 59.0943 1790.45 49.2271 1789.79 39.249L1792.45 35.2568C1793.34 33.9265 1794.11 32.5959 1794.78 31.2656C1797 30.3788 1798.77 29.4923 1800.1 28.6055C1801.65 27.4968 1803.65 26.9424 1806.09 26.9424ZM1375.99 2.66113C1377.33 2.66121 1378.54 3.1053 1379.65 3.99219C1380.98 4.65741 1382.2 5.54365 1383.31 6.65234C1384.64 7.53924 1385.86 8.42658 1386.97 9.31348C1388.3 9.97864 1389.63 10.3115 1390.96 10.3115C1391.85 10.3115 1393.18 10.09 1394.95 9.64648C1397.39 12.9724 1399.83 16.0765 1402.27 18.959C1404.93 21.6199 1407.59 24.3918 1410.25 27.2744C1410.25 31.044 1410.92 34.4816 1412.25 37.5859C1413.58 40.6902 1415.02 43.6838 1416.57 46.5664C1418.12 49.2272 1419.46 51.888 1420.56 54.5488C1421.89 57.2096 1422.45 60.092 1422.23 63.1963C1422.67 64.7484 1423.56 65.8572 1424.89 66.5225C1426.22 67.1877 1427.44 68.0749 1428.55 69.1836C1427.22 71.4009 1426.22 73.729 1425.55 76.168C1425.11 78.6071 1424.78 81.0472 1424.56 83.4863H1422.23C1420.45 83.4863 1418.9 83.2638 1417.57 82.8203C1416.24 82.1551 1414.69 81.6007 1412.91 81.1572C1413.8 89.5833 1414.36 98.1207 1414.58 106.769C1414.8 115.416 1414.91 123.954 1414.91 132.38C1414.91 143.023 1414.8 153.667 1414.58 164.311C1414.36 174.732 1414.24 185.265 1414.24 195.908C1414.24 201.008 1413.91 206.109 1413.25 211.209C1412.8 216.087 1411.47 220.854 1409.26 225.511C1409.7 229.28 1410.03 232.939 1410.25 236.487C1410.48 239.813 1410.59 243.361 1410.59 247.131C1410.59 257.553 1409.92 267.975 1408.59 278.396C1407.48 288.596 1406.04 298.796 1404.27 308.996C1403.6 312.987 1402.94 317.09 1402.27 321.303C1401.83 325.294 1401.05 329.175 1399.94 332.944C1399.5 334.053 1398.83 335.162 1397.95 336.271C1397.28 337.379 1396.73 338.488 1396.28 339.597C1393.62 345.362 1390.63 351.127 1387.3 356.893C1384.2 362.436 1380.43 367.536 1375.99 372.192C1372.67 372.414 1369.45 373.301 1366.35 374.854C1363.24 376.406 1360.36 377.182 1357.7 377.182C1355.26 377.182 1353.27 375.962 1351.71 373.523L1348.39 374.854C1347.28 375.297 1346.06 375.63 1344.73 375.852C1337.19 372.747 1329.98 368.978 1323.11 364.543C1316.46 360.108 1310.91 354.343 1306.48 347.247H1305.15C1303.15 347.247 1301.71 346.803 1300.82 345.916C1299.72 344.807 1298.5 343.477 1297.17 341.925C1296.06 340.151 1295.06 338.599 1294.17 337.269C1291.51 333.055 1288.63 328.842 1285.52 324.629C1282.42 320.416 1278.76 316.868 1274.55 313.985C1272.77 307.333 1270.11 301.679 1266.57 297.022C1263.02 292.144 1259.36 286.933 1255.59 281.39C1252.71 270.303 1247.38 259.992 1239.62 250.457C1240.73 249.349 1241.29 248.572 1241.29 248.129C1241.29 247.02 1240.84 246.133 1239.96 245.468C1239.29 244.581 1238.96 243.694 1238.96 242.807C1238.96 241.92 1239.18 241.255 1239.62 240.812C1236.74 237.707 1234.3 234.27 1232.31 230.5C1230.53 226.509 1228.76 222.518 1226.98 218.526C1225.43 214.535 1223.66 210.543 1221.66 206.552C1219.89 202.561 1217.67 198.902 1215.01 195.576C1212.57 197.128 1211.02 199.013 1210.35 201.23C1209.91 203.448 1209.69 205.776 1209.69 208.215V213.537C1209.91 215.311 1210.02 217.085 1210.02 218.858C1210.02 223.293 1209.47 227.618 1208.36 231.831C1207.47 236.044 1206.81 240.368 1206.36 244.803C1206.14 247.907 1206.03 251.344 1206.03 255.113C1206.25 258.883 1206.14 262.652 1205.7 266.422C1205.48 270.191 1204.92 273.851 1204.03 277.398C1203.15 280.946 1201.59 283.94 1199.38 286.379C1198.05 299.018 1196.38 311.658 1194.39 324.297C1192.39 336.936 1190.51 349.575 1188.73 362.214C1188.29 364.431 1187.85 367.203 1187.4 370.529C1186.96 373.855 1186.41 377.182 1185.74 380.508C1185.3 384.056 1184.85 387.382 1184.41 390.486C1184.19 393.812 1184.08 396.473 1184.08 398.469C1184.08 400.686 1184.63 402.793 1185.74 404.789C1186.85 407.006 1187.4 409.113 1187.4 411.108C1187.4 412.66 1186.85 413.548 1185.74 413.77C1184.85 414.213 1184.3 415.099 1184.08 416.43C1185.63 421.308 1186.41 426.852 1186.41 433.061C1186.41 434.834 1186.29 436.608 1186.07 438.382C1185.85 440.378 1185.52 442.263 1185.08 444.037C1184.63 445.146 1183.86 446.143 1182.75 447.03C1181.64 448.139 1181.08 449.137 1181.08 450.023C1181.08 450.91 1181.53 451.576 1182.41 452.02C1181.08 453.35 1179.42 454.237 1177.43 454.681C1175.43 455.124 1173.99 456.343 1173.1 458.339C1170.88 456.565 1168.67 454.902 1166.45 453.35C1164.23 452.019 1162.13 450.467 1160.13 448.693L1159.13 448.36C1157.58 448.36 1156.25 448.804 1155.14 449.691C1154.25 450.8 1153.03 451.354 1151.48 451.354C1151.04 451.354 1150.59 451.243 1150.15 451.021H1149.15L1147.16 442.374C1146.49 439.491 1145.61 436.83 1144.5 434.391C1146.27 429.734 1147.38 424.413 1147.82 418.426C1148.49 412.661 1149.15 406.784 1149.82 400.797C1150.48 394.81 1151.48 389.044 1152.81 383.501C1154.14 378.179 1156.58 373.523 1160.13 369.532C1160.13 367.758 1159.46 366.538 1158.13 365.873C1157.02 365.208 1156.47 363.766 1156.47 361.549C1156.47 361.105 1156.58 360.329 1156.8 359.221C1157.25 358.112 1157.58 356.893 1157.8 355.562C1158.24 354.232 1158.58 353.012 1158.8 351.903C1159.24 350.573 1159.57 349.575 1159.8 348.91C1161.57 340.262 1162.9 331.392 1163.79 322.301C1164.9 313.21 1167.67 304.783 1172.1 297.022C1171.88 296.136 1171.77 294.805 1171.77 293.031C1171.77 289.262 1172.1 285.603 1172.77 282.055C1173.66 278.507 1174.1 274.848 1174.1 271.079C1174.1 267.975 1173.77 265.092 1173.1 262.431C1173.77 259.992 1174.65 257.664 1175.76 255.446C1177.09 253.007 1177.76 250.568 1177.76 248.129C1177.76 245.911 1176.98 244.359 1175.43 243.472C1176.54 242.585 1177.2 241.587 1177.43 240.479C1177.87 239.37 1178.09 238.261 1178.09 237.152C1178.31 236.044 1178.53 235.046 1178.76 234.159C1179.2 233.051 1180.09 232.163 1181.42 231.498C1181.19 229.281 1180.97 227.174 1180.75 225.179V218.858C1180.75 210.654 1181.19 202.561 1182.08 194.578C1182.97 186.374 1183.41 178.058 1183.41 169.632C1183.41 161.428 1182.75 153.445 1181.42 145.685L1185.08 138.367C1182.86 136.593 1181.42 133.71 1180.75 129.719C1180.09 125.727 1179.64 121.404 1179.42 116.747C1179.2 112.091 1178.76 107.545 1178.09 103.11C1177.65 98.4538 1176.43 94.6834 1174.43 91.8008V88.8076C1174.43 85.2599 1174.21 81.8231 1173.77 78.4971C1173.32 75.171 1173.1 71.8446 1173.1 68.5186V65.5244C1174.21 65.0809 1174.99 64.305 1175.43 63.1963C1176.09 62.0876 1176.54 60.9788 1176.76 59.8701H1178.09C1180.75 59.8701 1183.41 59.6485 1186.07 59.2051C1188.73 58.7616 1191.4 58.54 1194.06 58.54H1198.38C1201.04 60.5356 1203.37 62.8636 1205.36 65.5244C1207.36 68.1853 1209.8 70.6254 1212.68 72.8428V78.8291C1214.68 81.49 1216.23 84.3732 1217.34 87.4775C1218.45 90.5819 1219.56 93.797 1220.66 97.123C1222 100.449 1223.33 103.664 1224.66 106.769C1225.99 109.873 1227.87 112.534 1230.31 114.751C1229.87 116.968 1229.65 118.743 1229.65 120.073C1229.65 122.956 1229.87 125.838 1230.31 128.721C1230.98 131.603 1231.42 134.375 1231.64 137.036C1232.53 138.145 1233.3 139.586 1233.97 141.36C1234.63 142.912 1235.74 143.91 1237.3 144.354C1238.4 153.001 1240.62 161.206 1243.95 168.967C1247.5 176.728 1250.05 184.822 1251.6 193.248C1253.37 195.022 1254.7 197.239 1255.59 199.899C1256.48 202.339 1257.36 204.779 1258.25 207.218C1259.36 209.657 1260.47 211.985 1261.58 214.202C1262.91 216.198 1264.79 217.639 1267.23 218.526C1268.56 223.848 1270.22 229.17 1272.22 234.491C1274.21 239.813 1277.32 244.359 1281.53 248.129C1281.53 252.563 1282.2 256.444 1283.53 259.77C1285.08 262.874 1286.74 265.868 1288.52 268.75C1290.51 271.411 1292.29 274.073 1293.84 276.733C1295.39 279.394 1296.39 282.277 1296.83 285.381C1299.94 290.037 1303.48 294.361 1307.48 298.353C1311.69 302.344 1315.9 306.225 1320.12 309.994C1324.55 313.542 1328.87 317.201 1333.09 320.971C1337.3 324.74 1341.18 328.731 1344.73 332.944C1347.17 333.166 1349.16 333.721 1350.72 334.607C1352.49 335.273 1354.49 335.827 1356.7 336.271C1358.25 335.162 1359.47 333.831 1360.36 332.279C1361.47 330.505 1362.47 328.731 1363.36 326.957C1364.24 325.183 1365.13 323.521 1366.02 321.969C1367.12 320.195 1368.46 318.642 1370.01 317.312C1370.01 316.868 1369.9 316.535 1369.67 316.313V314.983C1369.67 312.544 1370.01 310.66 1370.67 309.329C1371.56 307.777 1372.56 306.114 1373.67 304.34V295.692C1375.44 292.366 1376.66 288.818 1377.32 285.049C1377.99 281.279 1378.32 277.509 1378.32 273.739C1378.32 270.635 1378.21 267.531 1377.99 264.427C1377.77 261.101 1377.66 257.774 1377.66 254.448C1377.66 252.453 1377.77 250.457 1377.99 248.461C1378.21 246.244 1378.66 244.248 1379.32 242.475C1379.76 242.031 1380.54 241.365 1381.65 240.479C1382.76 239.37 1383.31 238.704 1383.31 238.482C1383.31 237.374 1382.98 236.265 1382.31 235.156C1381.65 234.048 1381.32 232.939 1381.32 231.831C1381.32 230.279 1381.98 229.059 1383.31 228.172V226.176C1383.31 225.067 1383.09 224.069 1382.65 223.183C1382.43 222.074 1381.76 221.298 1380.65 220.854C1381.76 219.524 1382.54 217.972 1382.98 216.198C1383.42 214.203 1383.64 212.207 1383.64 210.211C1383.87 207.994 1383.87 205.887 1383.64 203.892V198.237C1383.64 196.242 1383.76 194.134 1383.98 191.917C1384.2 189.7 1385.09 187.815 1386.64 186.263C1385.97 183.602 1385.53 181.051 1385.31 178.612C1385.09 175.952 1384.98 173.291 1384.98 170.63C1384.98 165.973 1385.2 161.317 1385.64 156.66C1386.08 152.004 1386.31 147.237 1386.31 142.358C1386.31 140.584 1386.19 138.81 1385.97 137.036C1385.75 135.041 1385.64 133.156 1385.64 131.382C1385.64 129.608 1385.97 128.832 1386.64 129.054C1387.52 129.054 1387.97 128.499 1387.97 127.391C1387.97 125.839 1387.75 124.286 1387.3 122.734C1387.08 121.182 1386.86 119.629 1386.64 118.077C1386.19 114.308 1385.86 110.538 1385.64 106.769C1385.42 102.777 1385.31 98.7861 1385.31 94.7949V87.4775C1385.53 84.8166 1385.97 82.2663 1386.64 79.8271C1385.31 77.8315 1384.42 75.9468 1383.98 74.1729C1383.76 72.1772 1383.53 70.4028 1383.31 68.8506L1382.65 63.8613C1382.43 62.0875 1381.76 60.3138 1380.65 58.54C1380.43 58.3183 1380.32 57.6527 1380.32 56.5439C1380.32 54.7702 1380.76 53.4396 1381.65 52.5527C1380.54 48.7832 1378.99 45.1249 1376.99 41.5771C1375.22 38.0293 1374.11 34.1486 1373.67 29.9355C1371.23 28.6051 1369.34 26.4988 1368.01 23.6162C1366.9 20.5119 1366.35 17.7399 1366.35 15.3008C1366.35 12.4181 1367.13 9.64624 1368.68 6.98535C1370.23 4.10279 1372.67 2.66113 1375.99 2.66113ZM1595.55 404.251C1595.09 405.557 1594.54 406.872 1593.9 408.189L1593.88 408.22C1593.81 408.336 1592.55 410.576 1589.84 415.27C1587.22 419.824 1583.54 426.173 1579.15 433.719C1577.33 436.86 1575.38 440.206 1573.33 443.716C1568.8 443.08 1564.26 442.526 1559.73 442.056C1556.2 439.674 1551.95 438.313 1547.46 438.312C1544.35 438.313 1541.48 438.909 1538.9 439.998C1533.84 439.252 1528.81 438.213 1523.82 436.879C1530.25 425.881 1536.52 415.179 1541.61 406.504C1542.79 406.026 1544.14 405.786 1545.64 405.786C1547.41 405.786 1548.97 406.008 1550.3 406.451C1551.85 406.895 1553.51 407.339 1555.29 407.782C1558.39 407.339 1562.16 407.117 1566.59 407.117C1571.25 407.117 1575.91 406.895 1580.56 406.451C1585.22 406.229 1589.54 405.676 1593.54 404.789C1594.23 404.634 1594.9 404.453 1595.55 404.251ZM1630.95 397.056C1630.91 398.165 1630.85 399.192 1630.78 400.065L1630.6 401.709C1629.29 410.066 1626.45 418.751 1622.84 425.452C1622.56 425.97 1620.82 428.982 1617.99 433.846C1613.54 435.029 1608.93 435.988 1604.18 436.72C1599.14 437.728 1594 438.092 1588.77 437.815C1597.18 423.332 1602.87 413.491 1603.24 412.713C1604.96 409.17 1606.2 405.517 1606.99 401.866C1607.63 402.261 1608.46 402.46 1609.5 402.46C1611.05 402.46 1613.38 402.017 1616.49 401.13C1619.59 400.465 1622.81 399.577 1626.13 398.469C1627.79 398.025 1629.4 397.554 1630.95 397.056ZM1077.63 0C1081.62 0 1084.95 0.444091 1087.61 1.33105C1091.82 12.6397 1095.37 24.281 1098.25 36.2549C1101.13 48.007 1103.46 59.9811 1105.23 72.1768C1105.68 75.0594 1106.23 78.1641 1106.9 81.4902C1107.78 84.5946 1108.23 87.6993 1108.23 90.8037C1108.23 91.4689 1108.01 92.245 1107.56 93.1318C1107.34 94.0188 1107.12 94.906 1106.9 95.793C1106.68 97.5667 1106.45 99.3405 1106.23 101.114V106.437C1106.23 111.758 1106.57 117.08 1107.23 122.401C1107.9 127.723 1108.23 133.156 1108.23 138.699C1108.23 144.908 1107.34 150.895 1105.57 156.66C1104.02 162.204 1102.8 168.08 1101.91 174.289C1101.02 180.719 1100.69 187.039 1100.91 193.248C1101.13 199.457 1100.69 205.776 1099.58 212.206C1099.14 214.867 1098.47 217.529 1097.59 220.189C1096.7 222.629 1096.25 225.289 1096.25 228.172C1096.25 230.168 1096.37 232.164 1096.59 234.159C1097.03 236.155 1097.25 238.261 1097.25 240.479C1097.25 243.805 1096.48 246.355 1094.92 248.129C1095.37 249.903 1095.7 251.566 1095.92 253.118C1096.14 254.449 1096.59 256.001 1097.25 257.774C1096.14 259.105 1095.37 260.546 1094.92 262.099C1094.48 263.651 1094.26 265.314 1094.26 267.088C1094.26 269.305 1094.37 271.412 1094.59 273.407C1094.81 275.181 1094.92 277.066 1094.92 279.062C1094.92 283.718 1094.15 288.153 1092.6 292.366C1091.27 296.579 1090.38 300.903 1089.94 305.338C1089.71 308.442 1089.6 311.546 1089.6 314.65C1089.82 317.533 1089.94 320.527 1089.94 323.632C1089.94 326.958 1089.71 330.173 1089.27 333.277C1089.05 336.382 1088.16 339.486 1086.61 342.59C1087.05 343.92 1087.61 345.252 1088.27 346.582C1088.94 347.912 1089.94 348.91 1091.27 349.575C1091.27 356.449 1092.15 363.434 1093.93 370.529C1095.92 377.403 1098.58 383.945 1101.91 390.153C1102.57 391.484 1103.57 392.482 1104.9 393.147C1106.23 393.813 1107.45 394.477 1108.56 395.143C1109.67 396.03 1110.56 397.028 1111.22 398.137C1111.89 399.245 1112 400.908 1111.56 403.125C1112 403.347 1112.66 403.458 1113.55 403.458C1115.32 403.458 1116.77 403.015 1117.87 402.128C1119.2 401.241 1120.76 400.797 1122.53 400.797H1124.86C1126.85 402.793 1128.85 405.121 1130.85 407.782C1133.06 410.443 1134.17 413.325 1134.17 416.43C1134.17 419.091 1133.4 421.308 1131.84 423.082C1130.29 425.078 1128.41 426.63 1126.19 427.738C1123.97 429.069 1121.64 430.177 1119.2 431.064C1116.77 432.173 1114.66 433.282 1112.89 434.391C1107.79 433.282 1102.46 432.284 1096.92 431.397C1091.38 430.732 1086.39 429.291 1081.95 427.073C1072.86 417.095 1066.43 405.564 1062.66 392.481C1059.11 379.621 1056.79 366.76 1055.68 353.899C1055.23 350.13 1055.01 346.471 1055.01 342.923C1055.01 339.153 1054.79 335.384 1054.35 331.614C1053.9 328.288 1051.91 326.292 1048.36 325.627C1051.02 325.183 1052.9 323.853 1054.01 321.636C1055.12 319.197 1055.79 316.536 1056.01 313.653C1056.23 310.549 1056.23 307.555 1056.01 304.673C1056.01 301.568 1056.23 299.018 1056.67 297.022C1054.9 297.688 1053.35 299.24 1052.02 301.679C1050.69 303.896 1049.47 306.446 1048.36 309.329C1047.25 312.212 1046.14 315.094 1045.03 317.977C1044.15 320.637 1043.26 322.745 1042.37 324.297C1033.06 340.262 1022.19 354.786 1009.78 367.869C997.58 380.952 984.941 393.923 971.858 406.784C968.088 408.115 964.54 409.778 961.214 411.773C957.889 413.991 954.784 416.319 951.902 418.758C943.476 421.197 935.493 422.417 927.954 422.417C921.08 422.417 914.316 421.419 907.664 419.424C901.012 417.65 895.024 414.545 889.703 410.11L877.396 382.171C876.731 380.397 875.955 378.623 875.068 376.85C874.181 374.854 873.516 372.968 873.073 371.194C872.629 369.199 872.408 367.092 872.408 364.875C872.629 362.436 872.74 360.33 872.74 358.556C872.74 350.795 872.961 343.033 873.405 335.272C874.07 327.29 874.957 319.418 876.066 311.657C876.454 308.941 877.012 306.14 877.74 303.254L878.384 300.77C879.112 297.884 879.669 295.082 880.057 292.366V288.707C880.057 287.598 879.947 286.268 879.725 284.716C879.503 282.942 878.838 281.833 877.729 281.39C883.051 268.529 885.711 255.113 885.711 241.144C885.711 238.926 885.601 236.82 885.379 234.824C885.379 232.607 885.268 230.389 885.046 228.172C886.599 226.62 887.596 224.845 888.04 222.85C888.483 220.632 888.706 218.415 888.706 216.198V209.213C888.927 206.996 889.592 204.889 890.701 202.894C890.479 200.454 890.257 198.126 890.036 195.908V188.591C890.036 173.734 891.144 159.1 893.362 144.687C895.801 130.052 897.02 115.306 897.02 100.449V76.834C897.242 73.5079 897.686 70.2919 898.351 67.1875C899.238 64.0834 900.457 61.2008 902.009 58.54C903.561 55.6575 905.779 53.2183 908.662 51.2227H909.66C910.103 51.001 910.546 50.8897 910.99 50.8896C912.985 50.8896 914.538 51.444 915.647 52.5527C916.756 53.4397 918.419 53.7725 920.636 53.5508C924.628 59.316 927.731 65.4143 929.949 71.8447C932.388 78.2752 933.608 85.0381 933.608 92.1338C933.608 97.4556 932.832 102.667 931.28 107.767C929.728 112.867 928.952 118.188 928.952 123.731C928.952 125.949 929.062 128.166 929.284 130.384C929.505 132.601 929.617 134.819 929.617 137.036C929.617 139.254 929.284 141.471 928.619 143.688C928.175 145.684 927.178 147.459 925.626 149.011C926.069 153.445 926.401 157.991 926.623 162.647C926.844 167.082 926.956 171.517 926.956 175.952C926.956 188.591 926.18 201.23 924.628 213.869C923.075 226.508 921.301 239.148 919.305 251.787C917.31 264.426 915.536 277.066 913.984 289.705C912.432 302.344 911.656 315.094 911.656 327.955V337.601C911.656 340.705 911.877 343.921 912.321 347.247C910.99 350.351 910.325 353.678 910.325 357.226C910.325 362.104 911.434 366.871 913.651 371.527C915.868 376.184 918.529 380.397 921.633 384.167C922.742 384.389 923.741 384.499 924.628 384.499C925.736 384.721 926.845 384.832 927.954 384.832C933.719 384.832 938.819 383.612 943.253 381.173C947.91 378.734 952.234 375.74 956.225 372.192C960.438 368.645 964.541 364.986 968.532 361.217C972.523 357.447 976.847 354.342 981.503 351.903C988.599 342.812 995.252 333.72 1001.46 324.629C1007.67 315.316 1013.66 305.671 1019.42 295.692C1019.86 290.371 1021.2 285.048 1023.41 279.727C1025.85 274.183 1028.29 268.75 1030.73 263.429C1033.39 258.107 1035.72 252.896 1037.72 247.796C1039.93 242.696 1041.04 237.818 1041.04 233.161C1041.04 230.722 1040.27 229.059 1038.71 228.172C1040.93 222.407 1042.59 216.42 1043.7 210.211C1044.81 204.002 1045.7 197.794 1046.36 191.585C1047.25 185.376 1048.14 179.278 1049.02 173.291C1049.91 167.082 1051.24 160.984 1053.02 154.997C1053.02 153.667 1052.9 152.336 1052.68 151.006V147.015C1052.68 136.815 1053.68 126.837 1055.68 117.08C1057.67 107.102 1058.67 97.0124 1058.67 86.8125C1058.67 84.3735 1058.45 82.1557 1058 80.1602C1057.78 77.9427 1057.67 75.8355 1057.67 73.8398C1057.67 72.0662 1058.23 70.9572 1059.33 70.5137C1060.66 70.0702 1061.33 68.8511 1061.33 66.8555C1061.33 65.0816 1061.11 63.1967 1060.67 61.2012C1060.44 59.2055 1060.33 57.0983 1060.33 54.8809C1060.33 48.007 1061 41.2439 1062.33 34.5918C1063.66 27.9397 1064.32 21.1766 1064.32 14.3027V10.3115C1064.32 8.75934 1064.1 7.31775 1063.66 5.9873C1065.21 3.5483 1067.32 1.99634 1069.98 1.33105C1072.64 0.444101 1075.19 1.06051e-05 1077.63 0ZM1509.26 395.341C1511.1 396.276 1513.02 397.098 1515.04 397.804C1519.47 399.356 1524.02 400.686 1528.68 401.795C1529.73 402.097 1530.76 402.418 1531.76 402.754C1526.62 411.523 1520.4 422.158 1514.05 433.013C1513.7 433.042 1513.37 433.061 1513.04 433.061C1510.83 433.061 1508.61 432.506 1506.39 431.397C1504.4 430.289 1502.18 429.069 1499.74 427.738C1497.52 426.408 1495.19 425.077 1492.75 423.747C1492.73 423.735 1492.7 423.724 1492.67 423.712C1498.49 413.766 1504.27 403.883 1509.26 395.341ZM1484.89 365.761C1485.78 368.366 1486.85 370.843 1488.1 373.19C1490.09 376.738 1492.98 379.177 1496.75 380.508C1497.2 383.014 1497.98 385.197 1499.08 387.06L1489.05 404.306C1486.26 409.068 1483.58 413.668 1480.98 418.107C1480.57 417.659 1480.17 417.211 1479.78 416.763C1478.45 414.989 1477.45 412.771 1476.79 410.11C1475.9 409.889 1474.9 409.889 1473.8 410.11C1472.91 410.332 1472.13 410.443 1471.47 410.443C1470.14 410.443 1469.47 409.999 1469.47 409.112C1466.83 407.224 1464.61 405.263 1462.83 403.231C1469.74 391.404 1474.99 382.41 1477.08 378.837C1481.46 371.322 1483.58 367.736 1484.89 365.761ZM1629.46 47.8965C1632.12 47.8965 1634.67 48.4509 1637.11 49.5596C1639.77 50.6682 1642.21 51.9987 1644.43 53.5508C1646.86 54.8812 1649.3 56.3228 1651.74 57.875C1654.18 59.2054 1656.62 60.203 1659.06 60.8682C1661.5 64.1943 1663.16 68.0749 1664.05 72.5098C1665.16 76.7227 1666.27 80.7139 1667.38 84.4834C1665.38 90.4704 1664.16 96.6799 1663.72 103.11C1663.27 109.319 1662.5 115.528 1661.39 121.736C1659.84 123.51 1658.51 125.506 1657.4 127.724C1656.29 129.719 1655.07 131.826 1653.74 134.043C1652.63 136.039 1651.41 138.035 1650.08 140.03C1648.75 141.804 1646.97 143.245 1644.76 144.354C1642.98 150.784 1640.21 155.885 1636.44 159.654C1632.67 163.424 1629.01 167.858 1625.47 172.958C1622.14 175.175 1618.59 176.284 1614.82 176.284C1611.72 176.284 1608.95 175.619 1606.51 174.289C1604.07 172.737 1601.85 170.852 1599.86 168.635C1597.86 166.196 1596.2 163.645 1594.87 160.984C1593.76 158.102 1592.87 155.33 1592.2 152.669C1593.76 148.012 1596.2 144.021 1599.52 140.695C1603.07 137.369 1606.62 134.043 1610.17 130.717C1613.71 127.391 1616.82 123.843 1619.48 120.073C1622.14 116.304 1623.47 111.758 1623.47 106.437C1623.47 105.993 1623.36 105.549 1623.14 105.105V103.775C1623.14 102.888 1623.47 102.112 1624.14 101.447C1624.8 100.782 1625.47 100.228 1626.13 99.7842L1628.13 98.1211C1628.79 97.456 1629.12 96.6797 1629.12 95.793C1629.12 94.906 1628.68 94.0188 1627.79 93.1318C1619.37 93.7971 1612.94 95.2387 1608.5 97.4561C1604.29 99.6735 1600.96 102.113 1598.52 104.773C1596.09 107.434 1593.87 110.095 1591.87 112.756C1590.1 115.195 1587.44 116.968 1583.89 118.077C1583.22 119.851 1582.23 121.404 1580.9 122.734L1577.24 126.393C1575.91 127.501 1574.69 128.832 1573.58 130.384C1572.69 131.936 1572.14 133.821 1571.92 136.038H1565.93C1565.04 138.034 1563.71 140.03 1561.94 142.025C1560.38 143.799 1558.72 145.574 1556.95 147.348C1555.4 149.121 1553.95 151.117 1552.62 153.334C1551.52 155.33 1551.18 157.547 1551.63 159.986C1549.19 160.873 1547.3 162.315 1545.97 164.311C1544.86 166.306 1543.2 167.969 1540.98 169.3V171.295C1540.98 173.069 1540.65 174.732 1539.98 176.284C1539.32 177.836 1539.21 179.5 1539.65 181.273C1536.99 183.713 1535 186.817 1533.67 190.587C1532.56 194.135 1531.34 197.461 1530.01 200.565C1526.9 202.118 1524.8 204.224 1523.69 206.885C1522.58 209.546 1522.02 212.65 1522.02 216.198C1518.7 219.524 1515.7 223.404 1513.04 227.839C1510.38 232.274 1507.94 236.82 1505.73 241.477C1503.73 246.133 1501.85 250.9 1500.07 255.778C1498.3 260.657 1496.41 265.203 1494.42 269.416V279.062C1491.31 282.609 1489.1 286.822 1487.77 291.7C1486.66 296.357 1484.88 300.57 1482.44 304.34C1482 306.779 1481.78 309.218 1481.78 311.657C1482 314.096 1482.11 316.536 1482.11 318.975C1482.11 321.635 1481.89 324.407 1481.45 327.29C1481 330.173 1480.23 332.833 1479.12 335.272C1480 338.599 1480.67 342.591 1481.11 347.247C1481.33 349.396 1481.62 351.57 1481.99 353.771C1481.08 354.458 1480.2 355.227 1479.36 356.077C1477.84 357.605 1476.71 359.206 1475.24 361.555C1473.79 363.882 1471.63 367.554 1468.1 373.604C1466.31 376.67 1462.19 383.718 1456.7 393.117C1455.49 390.748 1454.2 388.209 1452.84 385.497C1452.18 383.945 1451.29 382.615 1450.18 381.506C1449.29 380.619 1448.63 379.51 1448.18 378.18C1447.3 375.962 1446.74 373.633 1446.52 371.194C1446.3 368.755 1446.08 366.427 1445.86 364.21C1445.86 361.771 1445.52 359.443 1444.86 357.226C1444.41 354.787 1443.42 352.569 1441.86 350.573C1442.31 342.147 1443.2 333.72 1444.53 325.294C1446.08 316.868 1447.96 308.442 1450.18 300.016C1451.07 296.246 1452.06 292.588 1453.17 289.04C1454.28 285.492 1455.28 281.833 1456.17 278.063C1456.39 276.733 1456.72 275.846 1457.16 275.402C1457.83 274.737 1458.38 274.294 1458.83 274.072L1460.16 273.074C1460.6 272.631 1460.93 271.966 1461.16 271.079L1463.82 259.77C1465.59 252.452 1467.92 245.356 1470.8 238.482C1473.68 231.609 1477.56 225.289 1482.44 219.524C1482.89 213.981 1484.11 208.77 1486.1 203.892C1488.32 198.792 1490.76 193.912 1493.42 189.256C1496.08 184.378 1498.74 179.61 1501.4 174.954C1504.06 170.298 1506.17 165.308 1507.72 159.986L1507.39 159.321C1507.39 158.434 1507.83 157.991 1508.72 157.991C1509.83 157.77 1510.6 157.658 1511.05 157.658C1511.27 154.11 1512.05 151.117 1513.38 148.678C1514.93 146.017 1516.48 143.578 1518.03 141.36C1519.81 139.143 1521.36 136.814 1522.69 134.375C1524.24 131.714 1525.13 128.61 1525.35 125.062C1529.56 122.623 1533.11 119.63 1535.99 116.082C1539.1 112.313 1541.98 108.543 1544.64 104.773C1547.52 100.782 1550.52 97.0117 1553.62 93.4639C1556.73 89.6945 1560.5 86.7007 1564.93 84.4834C1566.04 83.153 1566.37 81.268 1565.93 78.8291C1572.8 73.7291 1579.9 69.1837 1587.22 65.1924C1594.53 61.2011 1601.41 56.5443 1607.84 51.2227H1619.81C1622.69 49.0053 1625.91 47.8965 1629.46 47.8965ZM1823.38 127.391C1822.27 140.252 1821.05 153.113 1819.72 165.974C1818.62 178.613 1817.84 191.363 1817.4 204.224C1815.18 205.554 1813.74 207.772 1813.07 210.876C1812.41 213.98 1812.07 216.752 1812.07 219.191C1812.07 220.965 1812.19 222.85 1812.41 224.846C1812.63 226.62 1813.07 228.504 1813.74 230.5C1809.75 240.478 1806.86 250.789 1805.09 261.433C1803.32 271.854 1801.32 282.277 1799.1 292.698C1798.88 293.363 1798.44 294.916 1797.77 297.355C1797.33 299.573 1796.77 301.901 1796.11 304.34C1795.44 306.779 1794.89 308.997 1794.45 310.992C1794 312.765 1793.78 313.763 1793.78 313.985C1793.56 315.538 1793.45 317.09 1793.45 318.643C1793.67 320.195 1793.78 321.747 1793.78 323.299L1788.79 328.288C1788.05 335.3 1786.78 342.158 1784.96 348.862C1785.9 349.312 1786.84 349.771 1787.78 350.24C1791.11 351.792 1793.88 354.01 1796.1 356.893L1796.43 357.891C1796.43 359.664 1795.76 360.884 1794.43 361.549C1793.32 362.214 1793.1 363.767 1793.77 366.206C1791.99 366.428 1790.44 367.314 1789.11 368.866C1787.78 370.418 1786.23 371.194 1784.45 371.194C1783.35 371.194 1782.46 370.641 1781.79 369.532C1781.35 371.084 1780.46 372.192 1779.13 372.857C1778.7 373.117 1778.25 373.359 1777.78 373.585C1777.46 374.669 1777.14 375.758 1776.82 376.85C1778.37 377.071 1779.81 377.182 1781.14 377.182C1782.69 377.403 1784.25 377.515 1785.8 377.515C1792.89 377.515 1799.99 377.071 1807.09 376.184C1814.4 375.075 1821.61 374.077 1828.71 373.19C1831.14 372.747 1833.69 372.414 1836.36 372.192C1839.02 371.749 1841.57 371.527 1844.01 371.527C1845.11 371.306 1846.44 371.306 1848 371.527C1849.55 371.527 1850.88 371.416 1851.99 371.194C1853.76 370.751 1854.87 370.086 1855.31 369.199C1855.98 368.091 1857.2 367.425 1858.97 367.203C1860.3 367.868 1861.86 368.201 1863.63 368.201C1865.63 368.201 1867.51 367.758 1869.28 366.871C1871.06 365.984 1872.83 364.986 1874.61 363.877C1871.5 348.577 1868.29 333.388 1864.96 318.31C1861.86 303.009 1859.08 287.598 1856.64 272.076C1855.31 263.872 1854.32 255.667 1853.65 247.463C1852.99 239.259 1852.1 231.165 1850.99 223.183C1850.1 214.978 1848.77 206.885 1847 198.902C1845.45 190.92 1843.12 183.048 1840.01 175.287V174.621C1840.01 173.956 1840.24 173.401 1840.68 172.958C1841.12 172.514 1841.34 171.738 1841.34 170.63V169.3C1838.46 167.304 1836.47 164.532 1835.36 160.984C1834.25 157.215 1833.25 153.334 1832.36 149.343C1831.7 145.13 1830.7 141.139 1829.37 137.369C1828.26 133.378 1826.27 130.052 1823.38 127.391Z" fill="#0f0f1a"/>
<path d="M1574.17 337.415C1560.45 338.874 1547.86 344.735 1536.48 354.973C1532.53 358.534 1527.31 364.84 1524.32 369.687C1522.81 372.111 1462.12 475.977 1459.5 480.601C1447.98 500.929 1443.65 521.727 1447.7 537.356C1449.36 543.761 1453.19 549.795 1457.82 553.282C1466.89 560.132 1478.47 560.479 1491.08 554.321C1497.24 551.304 1503.02 547.1 1508.98 541.313C1515.14 535.328 1520.43 528.725 1525.16 521.158C1528.65 515.544 1557.85 465.318 1558.3 464.156C1558.91 462.548 1559.11 459.309 1558.72 457.578C1557.5 452.359 1552.86 448.699 1547.46 448.699C1543.04 448.699 1539.55 450.826 1537.05 455.03C1536.51 455.97 1529.61 467.742 1521.75 481.219C1513.88 494.672 1506.86 506.691 1506.09 507.928C1499.09 519.378 1490.59 528.231 1482.03 533.004C1479.73 534.29 1476.69 535.279 1474.64 535.427C1472.88 535.551 1472.73 535.526 1471.99 534.908C1470.97 534.067 1470.31 532.559 1469.79 530.036C1469.17 527.019 1469.42 520.416 1470.28 516.212C1471.89 508.397 1474.86 500.558 1479.04 493.09C1482.28 487.303 1542.86 383.685 1544.32 381.434C1551.64 370.108 1563.37 362.219 1575.24 360.636C1578.55 360.191 1583.77 360.488 1586.79 361.254C1589.88 362.071 1593.68 363.901 1596.26 365.854C1608.7 375.227 1611.69 395.308 1603.26 412.717C1601.75 415.858 1510.79 571.731 1508.74 574.698C1497.26 591.342 1474.24 597.475 1455.72 588.794C1452.9 587.484 1436.75 578.284 1433.46 576.108C1428.37 572.745 1422.6 566.191 1419.76 560.503C1413.87 548.757 1413.82 534.908 1419.61 523.359C1420.45 521.727 1439.72 488.688 1489.05 404.309C1497.49 389.892 1504.78 377.255 1505.28 376.241C1506.04 374.633 1506.17 374.114 1506.24 372.111C1506.36 369.465 1506.09 368.154 1504.95 365.978C1503.05 362.318 1499.02 359.919 1494.79 359.919C1491.6 359.944 1489.1 361.007 1486.75 363.381C1485.34 364.791 1484.21 366.621 1477.08 378.837C1472.63 386.454 1453.79 418.727 1435.19 450.554C1416.59 482.382 1400.82 509.411 1400.12 510.648C1396.41 517.201 1393.74 525.387 1392.63 533.523C1392.04 537.727 1392.04 545.641 1392.63 549.845C1394.02 560.034 1397.53 569.406 1403.02 577.641C1405.76 581.722 1407.64 584.022 1411.18 587.558C1416.62 592.999 1419.24 594.829 1431.33 601.778C1446.67 610.582 1449.11 611.719 1456.93 613.772C1463.31 615.453 1465.78 615.725 1473.65 615.725C1481.26 615.725 1483.61 615.478 1489.72 613.994C1498.52 611.818 1508.37 606.946 1515.34 601.283C1520.09 597.4 1525.08 591.935 1528.47 586.816C1529.96 584.59 1620.69 429.435 1622.84 425.453C1626.45 418.752 1629.3 410.071 1630.61 401.713C1631.15 398.127 1631.22 387.468 1630.73 384.031C1629.12 373.347 1625.59 364.544 1619.85 356.951C1618.07 354.602 1614.01 350.398 1611.76 348.543C1604.96 342.979 1596.7 339.294 1587.65 337.786C1584.88 337.316 1577.02 337.118 1574.17 337.415Z" fill="#A48FFF"/>
</svg>
