<svg width="1400" height="409" viewBox="0 0 1400 409" fill="none" xmlns="http://www.w3.org/2000/svg">
<path d="M189.774 0.332031C234.726 0.332031 272.427 11.48 302.878 33.7744C333.51 56.0687 355.079 86.2472 367.586 124.311L293.09 144.974C285.84 121.229 273.605 102.833 256.386 89.7822C239.167 76.5506 216.963 69.9346 189.774 69.9346C164.943 69.9346 144.189 75.463 127.514 86.5195C111.019 97.5761 98.6034 113.164 90.2656 133.283C81.9279 153.402 77.7588 177.056 77.7588 204.244C77.7588 231.432 81.9279 255.087 90.2656 275.206C98.6034 295.325 111.019 310.913 127.514 321.97C144.189 333.026 164.943 338.555 189.774 338.555C216.963 338.555 239.167 331.939 256.386 318.707C273.605 305.475 285.84 287.078 293.09 263.515L367.586 284.178C355.079 322.241 333.51 352.42 302.878 374.715C272.427 397.009 234.726 408.156 189.774 408.156C150.623 408.156 116.819 399.638 88.3623 382.6C60.0866 365.562 38.2455 341.727 22.8389 311.095C7.61343 280.463 0 244.845 0 204.244C4.00546e-05 163.643 7.61347 128.027 22.8389 97.3945C38.2455 66.7625 60.0866 42.9276 88.3623 25.8896C116.819 8.8517 150.623 0.332062 189.774 0.332031ZM495.966 330.941H664.533V400H422.014V8.48926H495.966V330.941ZM779.276 400H705.324V8.48926H779.276V400ZM1015.21 8.48926C1019.02 8.48926 1024.1 8.66972 1030.44 9.03223C1036.97 9.21349 1042.77 9.75779 1047.84 10.6641C1071.22 14.2892 1090.35 21.9928 1105.21 33.7744C1120.25 45.5559 1131.31 60.4183 1138.38 78.3623C1138.86 79.563 1139.32 80.7744 1139.76 81.9941C1127.66 102.428 1111.18 130.248 1094.83 157.826C1067.29 204.308 1043.7 244.146 1042.57 246.133L1042.57 246.134C1039 252.377 1036.02 259.33 1033.74 266.571C1032.66 266.644 1031.56 266.715 1030.44 266.777C1023.92 267.14 1018.84 267.321 1015.21 267.321H923.862V400H849.91V8.48926H1015.21ZM1145.72 103.333C1147.89 114.216 1148.98 125.74 1148.98 137.905C1148.98 149.087 1148.04 159.751 1146.15 169.896C1126.35 203.303 1111.99 227.571 1102.21 244.114C1088.57 254.139 1071.65 260.946 1051.44 264.542C1052.92 260.829 1054.61 257.294 1056.48 254.035C1057.51 252.223 1080.96 212.618 1108.6 165.983C1121.65 143.954 1134.79 121.777 1145.72 103.333ZM923.862 198.263H1011.95C1015.76 198.263 1019.93 198.082 1024.46 197.72C1028.99 197.357 1033.16 196.631 1036.97 195.544C1046.93 192.825 1054.64 188.294 1060.08 181.95C1065.51 175.425 1069.23 168.266 1071.22 160.472C1073.4 152.497 1074.49 144.974 1074.49 137.905C1074.49 130.836 1073.4 123.404 1071.22 115.61C1069.23 107.635 1065.51 100.476 1060.08 94.1318C1054.64 87.6068 1046.93 82.9844 1036.97 80.2656C1033.16 79.1781 1028.99 78.4533 1024.46 78.0908C1019.93 77.7283 1015.76 77.5469 1011.95 77.5469H923.862V198.263Z" fill="white"/>
<path d="M1315.14 0.205505C1294.75 2.3434 1276.04 10.9312 1259.13 25.9327C1253.25 31.1506 1245.5 40.3907 1241.05 47.4929C1238.81 51.0439 1148.62 203.233 1144.73 210.009C1127.6 239.795 1121.17 270.269 1127.2 293.17C1129.66 302.555 1135.35 311.396 1142.23 316.505C1155.71 326.543 1172.91 327.05 1191.66 318.027C1200.81 313.606 1209.41 307.446 1218.27 298.967C1227.42 290.198 1235.28 280.523 1242.3 269.435C1247.48 261.21 1290.89 187.616 1291.55 185.913C1292.47 183.557 1292.76 178.81 1292.17 176.274C1290.37 168.628 1283.46 163.265 1275.45 163.265C1268.87 163.265 1263.69 166.382 1259.98 172.542C1259.17 173.919 1248.92 191.167 1237.23 210.915C1225.54 230.627 1215.11 248.238 1213.97 250.049C1203.57 266.826 1190.92 279.799 1178.21 286.792C1174.79 288.676 1170.27 290.126 1167.22 290.343C1164.61 290.524 1164.39 290.488 1163.29 289.582C1161.78 288.35 1160.79 286.14 1160.01 282.444C1159.1 278.023 1159.46 268.348 1160.75 262.188C1163.14 250.738 1167.55 239.251 1173.76 228.308C1178.57 219.829 1268.62 68.0021 1270.78 64.7047C1281.66 48.1088 1299.08 36.5497 1316.72 34.2307C1321.65 33.5784 1329.4 34.0132 1333.89 35.1365C1338.48 36.3323 1344.14 39.0137 1347.96 41.8763C1366.45 55.6096 1370.9 85.0328 1358.36 110.543C1356.12 115.145 1220.95 343.537 1217.9 347.885C1200.85 372.272 1166.63 381.258 1139.1 368.54C1134.91 366.619 1110.91 353.139 1106.03 349.951C1098.46 345.023 1089.89 335.42 1085.67 327.086C1076.92 309.874 1076.85 289.582 1085.45 272.66C1086.69 270.269 1115.32 221.858 1188.64 98.2226C1201.18 77.0973 1212.02 58.5809 1212.75 57.0952C1213.89 54.7399 1214.08 53.979 1214.19 51.0439C1214.37 47.1667 1213.97 45.2463 1212.28 42.0575C1209.45 36.6947 1203.46 33.1798 1197.17 33.1798C1192.43 33.2161 1188.72 34.7742 1185.23 38.2528C1183.13 40.3182 1181.44 42.9996 1170.86 60.9C1164.24 72.0605 1136.24 119.348 1108.6 165.983C1080.96 212.618 1057.51 252.224 1056.48 254.035C1050.97 263.638 1047 275.632 1045.35 287.553C1044.47 293.713 1044.47 305.309 1045.35 311.469C1047.41 326.398 1052.63 340.131 1060.78 352.197C1064.86 358.176 1067.66 361.546 1072.91 366.728C1081 374.7 1084.89 377.381 1102.87 387.563C1125.65 400.463 1129.29 402.13 1140.9 405.137C1150.39 407.601 1154.06 408 1165.75 408C1177.07 408 1180.56 407.638 1189.64 405.464C1202.72 402.275 1217.35 395.136 1227.71 386.838C1234.77 381.149 1242.19 373.141 1247.23 365.641C1249.43 362.379 1384.27 135.038 1387.47 129.204C1392.84 119.384 1397.06 106.665 1399.01 94.4178C1399.82 89.1637 1399.93 73.5462 1399.2 68.5095C1396.81 52.8557 1391.55 39.9559 1383.02 28.8316C1380.38 25.3892 1374.35 19.2291 1371.01 16.5115C1360.9 8.35848 1348.62 2.95942 1335.17 0.749054C1331.06 0.0605792 1319.37 -0.229321 1315.14 0.205505Z" fill="#A48FFF"/>
</svg>
